<svg width="4rem" height="4rem" viewBox="0 0 68 89" fill="none" xmlns="http://www.w3.org/2000/svg">
<path d="M61.1881 44.6387C61.1881 44.6387 62.0767 46.5849 60.7375 48.6063C59.3983 50.6276 43.7344 60.1085 43.7344 60.1085L44.7294 62.6556L61.0879 51.8104C61.0879 51.8104 62.9904 48.043 61.1943 44.6449L61.1881 44.6387Z" fill="#ECE7F5"></path>
<path d="M13.6016 12.5216L27.8949 3.29102C27.8949 3.29102 26.8811 4.89307 27.4882 7.42132L27.1878 8.59158L19.2588 13.7294L17.3814 13.6168L13.6078 12.5216H13.6016Z" fill="#ECE7F5"></path>
<path d="M8.6075 17.3809C8.6075 17.3809 8.0255 18.5323 8.98298 20.4974C9.94046 22.4624 20.9296 39.3591 20.9296 39.3591L20.0034 43.6396L8.00047 24.3523C8.00047 24.3523 6.02919 21.0668 8.61376 17.3809H8.6075Z" fill="#ECE7F5"></path>
<path d="M47.9956 83.5156C47.8579 84.2666 47.7703 84.9237 47.7578 85.4494" stroke="#DA0081" stroke-width="1.25161" stroke-linejoin="round"></path>
<path d="M59.2814 53.6387C57.1662 65.8606 52.6729 68.7706 52.6729 68.7706C52.529 68.6705 49.3937 77.1626 48.2109 82.507" stroke="#DA0081" stroke-width="1.25161" stroke-linejoin="round"></path>
<path d="M28.8237 2.82356L10.8713 14.2561C8.53907 15.7413 7.85244 18.8359 9.33765 21.1682L34.2129 60.2295C35.6981 62.5618 38.7928 63.2484 41.125 61.7632L59.0774 50.3306C61.4096 48.8454 62.0962 45.7508 60.611 43.4186L35.7358 4.35719C34.2505 2.02498 31.1559 1.33834 28.8237 2.82356Z" stroke="#200020" stroke-width="0.938706" stroke-linejoin="round"></path>
<path d="M32.8589 64.2114L8.29613 24.9485C6.90059 22.5517 6.85052 19.7043 10.0734 14.873" stroke="#200020" stroke-width="0.938706" stroke-linejoin="round"></path>
<path d="M61.0918 44.3984C63.2383 49.7678 61.3671 51.7704 59.2832 53.0095L43.1875 63.2602" stroke="#200020" stroke-width="0.938706" stroke-linejoin="round"></path>
<path d="M45.2857 64.1764C40.2542 49.7328 29.1274 50.4901 29.1274 50.4901C29.1274 50.4901 33.4955 34.1691 24.8406 34.6572C22.3875 34.7949 19.6965 41.3095 19.1709 50.0395C18.5012 61.1225 23.8331 68.144 23.8331 68.144C23.8331 68.144 22.8318 81.5487 17.5312 87.9382" fill="white"></path>
<path d="M45.2857 64.1764C40.2542 49.7328 29.1274 50.4901 29.1274 50.4901C29.1274 50.4901 33.4955 34.1691 24.8406 34.6572C22.3875 34.7949 19.6965 41.3095 19.1709 50.0395C18.5012 61.1225 23.8331 68.144 23.8331 68.144C23.8331 68.144 22.8318 81.5487 17.5312 87.9382" stroke="#DA0081" stroke-width="1.25161" stroke-miterlimit="10"></path>
<path d="M29.0013 50.6113C29.0013 50.6113 26.3917 51.4436 27.0863 52.4199C27.6621 53.2334 28.8887 51.8504 29.0013 50.6113Z" fill="white" stroke="#DA0081" stroke-width="1.25161" stroke-miterlimit="10"></path>
<path d="M48.7758 23.0071C48.7758 23.0071 56.1665 17.1495 46.8108 9.05788C41.6354 4.58339 36.4412 10.9603 42.2862 14.7464C48.3941 18.7015 48.7758 23.0071 48.7758 23.0071Z" fill="white" stroke="#DA0081" stroke-width="1.25161" stroke-miterlimit="10"></path>
<path d="M52.448 28.3964C52.448 28.3964 60.2706 19.3034 51.2653 13.133C45.8708 9.4345 39.5127 14.6725 46.5717 19.7978C52.4606 24.0721 52.448 28.3964 52.448 28.3964Z" fill="white" stroke="#DA0081" stroke-width="1.25161" stroke-miterlimit="10"></path>
<path d="M56.2885 34.1319C56.2885 34.1319 62.847 25.1641 54.8304 18.9686C50.0055 15.2389 43.7662 19.5506 49.799 25.8713C54.8242 31.1343 56.2885 34.1319 56.2885 34.1319Z" fill="white" stroke="#DA0081" stroke-width="1.25161" stroke-miterlimit="10"></path>
<path d="M61.1331 42.641C61.1331 42.641 63.8991 29.7307 57.1092 24.5303C52.2905 20.8443 47.672 25.713 52.8662 31.1575C57.1905 35.6884 61.1331 42.641 61.1331 42.641Z" fill="white" stroke="#DA0081" stroke-width="1.25161" stroke-miterlimit="10"></path>
<path d="M36.9945 36.7293L37.589 36.8857C37.6704 36.9045 37.7205 36.9921 37.7017 37.0735C37.6641 37.2174 37.6579 37.28 37.564 37.5366C37.4764 37.718 37.4764 37.9496 37.2824 38.0497C37.1009 38.1624 36.9132 38.1811 36.6754 38.106L35.3987 37.7744L35.0983 37.6993C35.0045 37.6742 34.9106 37.6555 34.7479 37.5991C34.46 37.4865 34.2222 37.2737 34.0658 37.0171C33.7403 36.4915 33.8217 35.7655 34.2598 35.3212C34.4725 35.1022 34.7541 34.952 35.0545 34.9019C35.1296 34.8894 35.2047 34.8832 35.2861 34.8832C35.3174 34.8832 35.3737 34.8832 35.3862 34.8832V34.8706C35.405 34.8206 35.4363 34.7705 35.4676 34.7204C35.5865 34.5264 35.7617 34.3575 35.9557 34.2448C36.35 34.007 36.8694 33.9945 37.2824 34.1948C37.7017 34.395 38.0021 34.8143 38.0584 35.2712C38.0709 35.3838 38.0772 35.5027 38.0584 35.6153C38.0459 35.7342 38.0146 35.8406 37.9958 35.9032L37.8832 36.3538L37.7768 36.7668C37.758 36.8482 37.6704 36.8982 37.589 36.8795L36.9945 36.723C36.9132 36.7042 36.8631 36.6166 36.8819 36.5353L36.9883 36.1222L37.1009 35.6717C37.1259 35.5841 37.1322 35.5402 37.1385 35.509C37.1447 35.4714 37.1385 35.4339 37.1385 35.3901C37.1197 35.2336 37.0133 35.0897 36.8756 35.0208C36.7317 34.952 36.5627 34.9582 36.4188 35.0396C36.3499 35.0772 36.2936 35.1397 36.2498 35.2023C36.2436 35.2211 36.231 35.2336 36.2248 35.2524C36.1998 35.3024 36.181 35.3963 36.1622 35.4714L36.0433 35.9345C36.0433 36.0159 35.9682 35.9595 35.9244 35.9533L35.7742 35.9157L35.4676 35.8344C35.4175 35.8219 35.3612 35.8031 35.3174 35.8031C35.2798 35.8031 35.2861 35.8031 35.2673 35.8031C35.2423 35.8031 35.2172 35.8031 35.1922 35.8031C35.0921 35.8219 34.992 35.8719 34.9169 35.947C34.7729 36.0972 34.7416 36.3475 34.8543 36.5228C34.9106 36.6104 34.992 36.6855 35.0858 36.723C35.1171 36.7355 35.2235 36.7606 35.3236 36.7919L35.624 36.867L36.7254 37.1486L36.7379 37.111L36.813 36.8294C36.8318 36.748 36.9194 36.698 37.0008 36.7168L36.9945 36.7293Z" fill="#DA0081"></path>
<path d="M45.682 31.2863L46.2765 31.4428C46.3579 31.4615 46.408 31.5492 46.3892 31.6305C46.3516 31.7682 46.3454 31.837 46.2515 32.0936C46.1639 32.2751 46.1639 32.5066 45.9699 32.6068C45.7884 32.7194 45.6007 32.7382 45.3629 32.6631L44.0862 32.3314L43.7858 32.2563C43.692 32.2313 43.5981 32.2125 43.4354 32.1499C43.1475 32.0373 42.9097 31.8245 42.7533 31.5679C42.4278 31.0423 42.5092 30.3101 42.9473 29.872C43.16 29.653 43.4417 29.5028 43.742 29.4527C43.8171 29.4402 43.8922 29.4339 43.9736 29.4339C44.0049 29.4339 44.0612 29.4339 44.0737 29.4339V29.4214C44.0925 29.3714 44.1238 29.3213 44.1551 29.2712C44.274 29.0772 44.4492 28.9083 44.6432 28.7956C45.0375 28.5578 45.5569 28.5453 45.9699 28.7455C46.3892 28.9458 46.6896 29.3651 46.7459 29.8219C46.7584 29.9346 46.7647 30.0535 46.7459 30.1661C46.7334 30.285 46.7021 30.3914 46.6833 30.454L46.5707 30.9046L46.4643 31.3176C46.4455 31.399 46.3579 31.449 46.2765 31.4302L45.682 31.2738C45.6007 31.255 45.5506 31.1674 45.5694 31.0861L45.6758 30.673L45.7884 30.2224C45.8134 30.1348 45.8197 30.091 45.826 30.0597C45.8322 30.0222 45.826 29.9846 45.826 29.9408C45.8072 29.7844 45.7008 29.6404 45.5631 29.5716C45.4192 29.5028 45.2502 29.509 45.1063 29.5904C45.0375 29.6279 44.9811 29.6905 44.9373 29.7531C44.9311 29.7719 44.9185 29.7844 44.9123 29.8032C44.8873 29.8532 44.8685 29.9471 44.8497 30.0222L44.7308 30.4853C44.7308 30.5666 44.6557 30.5103 44.6119 30.5041L44.4617 30.4665L44.1551 30.3852C44.105 30.3726 44.0487 30.3539 44.0049 30.3539C43.9673 30.3539 43.9736 30.3539 43.9548 30.3539C43.9298 30.3539 43.9047 30.3539 43.8797 30.3539C43.7796 30.3726 43.6795 30.4227 43.6044 30.4978C43.4604 30.648 43.4291 30.8983 43.5418 31.0735C43.5981 31.1612 43.6795 31.2362 43.7733 31.2738C43.8046 31.2863 43.911 31.3113 44.0111 31.3426L44.3115 31.4177L45.4129 31.6993L45.4254 31.6618L45.5005 31.3802C45.5193 31.2988 45.6069 31.2488 45.6883 31.2675L45.682 31.2863Z" fill="#DA0081"></path>
<path d="M42.5492 42.2902L43.1437 42.4467C43.2251 42.4654 43.2752 42.5531 43.2564 42.6344C43.2188 42.7721 43.2126 42.8409 43.1187 43.0975C43.0311 43.279 43.0311 43.5105 42.8371 43.6107C42.6556 43.7233 42.4679 43.7421 42.2301 43.667L40.9534 43.3353L40.653 43.2602C40.5592 43.2352 40.4653 43.2164 40.3026 43.1538C40.0147 43.0412 39.7769 42.8284 39.6205 42.5718C39.295 42.0462 39.3764 41.3202 39.8145 40.8759C40.0272 40.6569 40.3088 40.5067 40.6092 40.4566C40.6843 40.4441 40.7594 40.4378 40.8408 40.4378C40.8721 40.4378 40.9284 40.4378 40.9409 40.4378V40.4253C40.9597 40.3753 40.991 40.3252 41.0223 40.2751C41.1412 40.0811 41.3164 39.9122 41.5104 39.7995C41.9046 39.5617 42.4241 39.5492 42.8371 39.7495C43.2564 39.9497 43.5568 40.369 43.6131 40.8258C43.6256 40.9385 43.6319 41.0574 43.6131 41.17C43.6006 41.2889 43.5693 41.3953 43.5505 41.4579L43.4379 41.9085L43.3315 42.3215C43.3127 42.4029 43.2251 42.4529 43.1437 42.4342L42.5492 42.2777C42.4679 42.2589 42.4178 42.1713 42.4366 42.09L42.543 41.6769L42.6556 41.2264C42.6806 41.1387 42.6869 41.0949 42.6932 41.0636C42.6994 41.0261 42.6932 40.9885 42.6932 40.9447C42.6744 40.7883 42.568 40.6444 42.4303 40.5755C42.2864 40.5067 42.1174 40.5129 41.9735 40.5943C41.9046 40.6318 41.8483 40.6944 41.8045 40.757C41.7983 40.7758 41.7857 40.7883 41.7795 40.8071C41.7544 40.8571 41.7357 40.951 41.7169 41.0261L41.598 41.4892C41.598 41.5705 41.5229 41.5142 41.4791 41.508L41.3289 41.4704L41.0223 41.3891C40.9722 41.3765 40.9159 41.3578 40.8721 41.3578C40.8345 41.3578 40.8408 41.3578 40.822 41.3578C40.797 41.3578 40.7719 41.3578 40.7469 41.3578C40.6468 41.3765 40.5466 41.4266 40.4715 41.5017C40.3276 41.6519 40.2963 41.9022 40.409 42.0774C40.4653 42.1651 40.5466 42.2402 40.6405 42.2777C40.6718 42.2902 40.7782 42.3153 40.8783 42.3465L41.1787 42.4216L42.2801 42.7033L42.2926 42.6657L42.3677 42.3841C42.3865 42.3027 42.4741 42.2527 42.5555 42.2714L42.5492 42.2902Z" fill="#DA0081"></path>
<path d="M32.166 35.4723L45.5943 27.0488C46.5591 26.4435 47.8273 26.734 48.4325 27.6988L50.4378 30.8955L35.2654 40.4131C34.3005 41.0184 33.0324 40.7279 32.4272 39.7631L31.516 38.3105C30.9107 37.3457 31.2012 36.0776 32.166 35.4723Z" stroke="#200020" stroke-width="0.938706" stroke-linejoin="round"></path>
<path d="M45.5293 43.0238L33.4317 50.6126L31.4264 47.4159C30.8212 46.4511 31.1116 45.1829 32.0764 44.5777L42.4299 38.0829C43.3948 37.4777 44.6629 37.7681 45.2682 38.733L46.1793 40.1856C46.7846 41.1504 46.4941 42.4185 45.5293 43.0238Z" stroke="#200020" stroke-width="0.938706" stroke-linejoin="round"></path>
<path d="M40.5832 35.1958C41.4404 35.1958 42.1352 34.5009 42.1352 33.6438C42.1352 32.7866 41.4404 32.0918 40.5832 32.0918C39.7261 32.0918 39.0312 32.7866 39.0312 33.6438C39.0312 34.5009 39.7261 35.1958 40.5832 35.1958Z" fill="white" stroke="#200020" stroke-width="0.938706" stroke-linejoin="round"></path>
<path d="M40.2891 34.0076C40.433 34.1516 40.6583 34.1828 40.8398 34.0702C41.0213 33.9576 41.0901 33.7385 41.0213 33.5508" fill="white"></path>
<path d="M40.7285 33.6547L41.3105 33.4544C41.3856 33.4231 41.5045 33.5358 41.5045 33.711C41.5045 33.9738 41.3731 34.2429 41.1603 34.4057C41.129 34.4307 41.0915 34.4557 41.0539 34.4807C40.8036 34.6309 40.4782 34.6435 40.2153 34.5183C40.0526 34.4432 40.0026 34.2867 40.0651 34.2304L40.4969 33.7924C40.5595 33.736 40.6096 33.6797 40.5971 33.6922C40.5971 33.686 40.5971 33.7173 40.5971 33.6922C40.5846 33.6922 40.6096 33.7048 40.5971 33.6922C40.5783 33.6985 40.6534 33.6797 40.7285 33.6484V33.6547Z" fill="#200020"></path>
<path d="M40.0682 33.7061C40.1559 33.6511 40.1616 33.5022 40.0809 33.3735C40.0002 33.2449 39.8637 33.1852 39.776 33.2402C39.6883 33.2952 39.6826 33.4441 39.7633 33.5728C39.844 33.7014 39.9805 33.7611 40.0682 33.7061Z" fill="#200020"></path>
<path d="M40.8104 33.249C40.8981 33.194 40.9038 33.0451 40.8231 32.9165C40.7424 32.7879 40.6059 32.7282 40.5182 32.7832C40.4305 32.8382 40.4248 32.9871 40.5055 33.1157C40.5862 33.2444 40.7227 33.3041 40.8104 33.249Z" fill="#200020"></path>
<path d="M39.6614 45.7799L37.538 45.299L37.717 44.5174L39.8341 45.0023L39.6614 45.7799ZM38.0138 46.8135C37.5557 47.1008 37.1009 47.2472 36.6493 47.2527C36.1964 47.2561 35.7695 47.1338 35.3687 46.8859C34.97 46.6366 34.6224 46.2755 34.3257 45.8026C34.0291 45.3298 33.8553 44.8596 33.8044 44.3921C33.7556 43.9234 33.832 43.4869 34.0335 43.0827C34.2337 42.6764 34.5628 42.3296 35.0208 42.0423C35.4788 41.7549 35.9343 41.6096 36.3873 41.6062C36.841 41.5993 37.2672 41.7205 37.6659 41.9698C38.0667 42.2178 38.4154 42.5782 38.712 43.0511C39.0087 43.524 39.1814 43.9948 39.2302 44.4636C39.2811 44.931 39.2054 45.3686 39.0031 45.7762C38.8016 46.1804 38.4718 46.5261 38.0138 46.8135ZM37.5608 46.0914C37.8696 45.9007 38.0826 45.6725 38.1997 45.407C38.3189 45.1401 38.351 44.8496 38.2958 44.5356C38.2427 44.2202 38.1111 43.8949 37.9009 43.5599C37.6908 43.2249 37.4566 42.9669 37.1984 42.7861C36.9409 42.6019 36.6662 42.5054 36.374 42.4966C36.084 42.4864 35.7839 42.5757 35.4737 42.7643C35.1649 42.9551 34.952 43.1832 34.8349 43.4487C34.7178 43.7143 34.6857 44.0048 34.7388 44.3202C34.794 44.6342 34.9267 44.9588 35.1368 45.2938C35.347 45.6289 35.5808 45.8885 35.8382 46.0728C36.0943 46.2549 36.3674 46.351 36.6574 46.3612C36.9496 46.37 37.2507 46.2801 37.5608 46.0914ZM40.6506 45.0176L40.2316 44.3496L41.0955 41.3742C41.163 41.1427 41.1886 40.9479 41.1721 40.7898C41.1557 40.6317 41.1122 40.4965 41.0417 40.3841C40.946 40.2314 40.8279 40.1163 40.6877 40.0388C40.5462 39.9591 40.3951 39.9209 40.2346 39.9241C40.0762 39.926 39.9217 39.9741 39.7712 40.0686C39.6121 40.1683 39.4944 40.2939 39.4179 40.4453C39.3423 40.5932 39.3085 40.7489 39.3164 40.9123C39.3244 41.0757 39.3744 41.2261 39.4664 41.3634L38.6776 41.8582C38.486 41.5529 38.387 41.2442 38.3803 40.9321C38.3758 40.6188 38.4542 40.3244 38.6153 40.049C38.7786 39.7722 39.0182 39.5347 39.3341 39.3365C39.6268 39.153 39.9309 39.0538 40.2467 39.0389C40.5611 39.0219 40.8576 39.0871 41.1361 39.2345C41.4134 39.3797 41.6458 39.6018 41.8334 39.9008C41.9704 40.1192 42.0558 40.3212 42.0895 40.5069C42.1232 40.6926 42.12 40.8852 42.0797 41.0848C42.0416 41.2831 41.9834 41.5131 41.9053 41.7749L41.2875 43.8778L41.0978 43.7309L43.3498 42.3182L43.8027 43.0402L40.6506 45.0176Z" fill="black"></path>
<path d="M58.6968 40.4043L38.1016 53.6025" stroke="#200020" stroke-width="0.938706" stroke-linejoin="round"></path>
<path d="M39.4219 54.6904L53.3773 45.5036C53.6714 45.3096 54.0657 45.3972 54.2472 45.6976L56.4438 49.2585C56.619 49.5463 56.5376 49.9218 56.256 50.1033L42.8638 58.9459" stroke="#200020" stroke-width="0.938706" stroke-linejoin="round"></path>
<path d="M58.2697 45.8997L57.9443 45.374C57.9005 45.2989 57.8817 45.2301 57.8943 45.2175C57.9193 45.1925 57.9381 45.155 57.9443 45.1174C58.0382 45.1049 57.6502 44.5855 57.4374 44.2163L57.3436 44.0723C57.3436 44.0723 57.3248 44.041 57.306 44.0285C57.281 44.0035 57.2559 43.991 57.2184 43.9785C57.1871 43.9785 57.1496 43.9722 57.1183 43.9785C57.0995 43.9785 57.0932 43.991 57.0682 44.0035L56.9243 44.0974C56.8429 44.1474 56.8241 44.1975 56.8241 44.2726C56.8241 44.3039 56.8367 44.3352 56.8492 44.3665L57.0306 44.6606L57.3999 45.2488C57.4374 45.3114 57.4374 45.3114 57.4499 45.3239C57.4625 45.3364 57.475 45.349 57.4875 45.3552C57.5125 45.374 57.5501 45.3803 57.5814 45.3865C57.6314 45.3803 57.6377 45.3865 57.719 45.3365C57.7941 45.2926 57.888 45.3114 57.9318 45.3865L58.2572 45.9122C58.301 45.9873 58.2823 46.0812 58.2072 46.125C58.057 46.2313 57.7754 46.3315 57.5438 46.319C57.3498 46.3127 57.1496 46.2501 56.9868 46.1437C56.9055 46.0937 56.8241 46.0248 56.7616 45.9497C56.6927 45.8809 56.6364 45.7808 56.6114 45.7432L56.2421 45.155L56.0606 44.8608C55.9605 44.6919 55.8917 44.4979 55.8917 44.2976C55.8729 43.9034 56.1045 43.5028 56.4299 43.3151L56.5738 43.2212C56.6552 43.1712 56.7428 43.1274 56.8367 43.1023C57.0244 43.0398 57.2309 43.0397 57.4186 43.0836C57.6126 43.1274 57.7879 43.2275 57.9318 43.3652C58.0006 43.4277 58.0695 43.5216 58.1133 43.5842L58.2072 43.7281L58.5764 44.3164C58.6327 44.4165 58.6953 44.4854 58.7892 44.6981C58.858 44.8859 58.883 45.0861 58.8455 45.2801C58.8079 45.4992 58.7015 45.7119 58.5451 45.8684C58.4387 45.9748 58.301 45.9748 58.2572 45.9059L58.2697 45.8997Z" fill="#200020"></path>
<path d="M55.9968 45.914L56.5224 45.5886C56.5975 45.5448 56.6914 45.5636 56.7352 45.6387C56.8103 45.7638 56.8479 45.8014 56.9104 45.8827C57.2359 46.2395 57.8179 46.3208 58.2246 46.058C58.6439 45.8139 58.8379 45.2569 58.6689 44.8064C58.6251 44.7 58.6064 44.6499 58.5188 44.5185C58.4749 44.4434 58.4937 44.3495 58.5688 44.3057L59.0945 43.9803C59.1696 43.9365 59.2635 43.9553 59.3073 44.0304C59.3761 44.1368 59.4887 44.337 59.5451 44.4997C59.8642 45.3571 59.5013 46.3896 58.7128 46.8527C57.943 47.3409 56.8541 47.1969 56.2408 46.5211C56.1344 46.4084 56.0093 46.2332 55.953 46.1331C55.9092 46.058 55.9279 45.9641 56.003 45.9203L55.9968 45.914Z" fill="#200020"></path>
<path d="M58.2282 46.5957L58.7537 46.2704C58.8288 46.2266 58.8913 46.1953 58.8976 46.2079L59.3918 46.9961C59.3918 46.9961 59.348 47.0524 59.273 47.0962L58.7475 47.4215C58.6724 47.4653 58.6098 47.4966 58.6036 47.484L58.1094 46.6958C58.1094 46.6958 58.1532 46.6395 58.2282 46.5957Z" fill="#200020"></path>
<path d="M29.4256 2.44336L28.6559 2.93149C27.8924 3.41961 27.4356 4.26445 27.4481 5.17187L27.4794 7.42476C27.4919 8.23205 27.0789 8.98301 26.3905 9.4023L19.6881 13.5201C19.1311 13.8643 18.4553 13.9519 17.8295 13.7579L14.8694 12.8567C14.1935 12.6502 13.4614 12.7253 12.8418 13.0695L11.9219 13.5827" stroke="#200020" stroke-width="0.938706" stroke-linejoin="round"></path>
<path d="M23.1225 8.57714L23.4604 9.09656C23.5042 9.16539 23.4855 9.26552 23.4166 9.30933L23.085 9.5221L19.9935 11.5247L19.6368 11.7562C19.5679 11.8 19.4678 11.7813 19.424 11.7124L19.0861 11.193C19.0423 11.1242 19.061 11.024 19.1299 10.9802L19.4866 10.7487L22.578 8.7461L22.9097 8.53333C22.9786 8.48952 23.0787 8.5083 23.1225 8.57714Z" fill="#200020"></path>
<path d="M24.9583 8.09236C25.2416 8.09236 25.4713 7.86269 25.4713 7.57938C25.4713 7.29607 25.2416 7.06641 24.9583 7.06641C24.675 7.06641 24.4453 7.29607 24.4453 7.57938C24.4453 7.86269 24.675 8.09236 24.9583 8.09236Z" stroke="#200020" stroke-width="0.938706" stroke-linejoin="round"></path>
<path d="M18.9771 20.2695L16.9891 21.5166C16.7578 21.6617 16.6879 21.9668 16.833 22.1981L17.8939 23.8892C18.039 24.1205 18.3441 24.1904 18.5754 24.0453L20.5634 22.7982C20.7947 22.6532 20.8646 22.348 20.7195 22.1167L19.6586 20.4256C19.5135 20.1943 19.2084 20.1244 18.9771 20.2695Z" fill="#DA0081"></path>
<path d="M31.1125 12.6579L29.3978 13.7343C29.1663 13.8782 29.0975 14.1848 29.2414 14.4164L33.5344 21.2689C33.622 21.4066 33.4718 21.5756 33.3279 21.488L24.8608 16.8383C24.7231 16.7632 24.5604 16.7694 24.4227 16.857L21.5753 18.6468C21.3437 18.7908 21.2749 19.0974 21.4188 19.329L28.2839 30.2743C28.4278 30.5058 28.7345 30.5747 28.966 30.4307L30.6807 29.3543C30.9123 29.2104 30.9811 28.9038 30.8372 28.6722L26.4128 21.6194C26.3251 21.4817 26.4753 21.3128 26.6193 21.4004L35.3305 26.194C35.4681 26.2691 35.6309 26.2629 35.7685 26.1752L38.4908 24.4668C38.7223 24.3229 38.7912 24.0162 38.6472 23.7847L31.7759 12.8331C31.632 12.6016 31.3253 12.5327 31.0938 12.6767H31.1063L31.1125 12.6579Z" fill="#200020"></path>
<path d="M63.496 81.3065L62.7826 80.8997C62.6825 80.8434 62.6512 80.7182 62.7075 80.6181L62.9641 80.1613L65.5236 75.6617L65.8052 75.1674C65.8616 75.0672 65.9867 75.0359 66.0868 75.0923L66.8003 75.499C66.9004 75.5554 66.9317 75.6805 66.8754 75.7806L66.5938 76.275L64.0342 80.7746L63.7776 81.2314C63.7213 81.3315 63.5961 81.3628 63.496 81.3065Z" fill="#2B0D2B"></path>
<path d="M66.6872 78.8056L66.2818 79.5179C66.2254 79.6169 66.26 79.743 66.3591 79.7994L67.2018 80.2791C67.3009 80.3355 67.4269 80.3009 67.4833 80.2018L67.8887 79.4896C67.9451 79.3905 67.9105 79.2645 67.8115 79.208L66.9688 78.7284C66.8697 78.672 66.7436 78.7066 66.6872 78.8056Z" fill="#2B0D2B"></path>
<path d="M65.6816 79.1827L66.0884 78.4693C66.1447 78.3692 66.1071 78.244 66.0133 78.1877L65.5064 77.8998L62.8655 76.3979L62.3711 76.1163C62.271 76.06 62.1458 76.0975 62.0895 76.1914L61.6827 76.9048C61.6264 77.0049 61.6639 77.1301 61.7578 77.1864L62.2522 77.468L64.8931 78.97L65.4 79.2578C65.5001 79.3142 65.6253 79.2766 65.6816 79.1827Z" fill="#2B0D2B"></path>
<path d="M7.61634 52.7206C7.02809 49.6416 4.05552 47.6203 0.976562 48.2023C4.05552 47.614 6.07687 44.6415 5.49487 41.5625C6.08312 44.6415 9.05569 46.6628 12.1347 46.0808C9.05569 46.6691 7.03435 49.6416 7.61634 52.7206Z" stroke="#200020" stroke-width="1.25161" stroke-linecap="round" stroke-linejoin="round"></path>
<path d="M60.4704 11.1724C61.3716 9.54533 60.7833 7.49269 59.1562 6.59153C60.7833 7.49269 62.836 6.90443 63.7371 5.27734C62.836 6.90443 63.4242 8.95707 65.0513 9.85823C63.4242 8.95707 61.3716 9.54533 60.4704 11.1724Z" stroke="#DA0081" stroke-width="1.25161" stroke-linecap="round" stroke-linejoin="round"></path>
</svg>