<svg width="4rem" height="4rem" viewBox="0 0 49 49" fill="none" xmlns="http://www.w3.org/2000/svg">
<path d="M14.0566 12.8086H8.91087C7.68078 12.8086 6.68359 13.8058 6.68359 15.0359V19.1999M16.5143 12.8086H32.4892M34.9469 12.8086H40.0927C41.3228 12.8086 42.32 13.8058 42.32 15.0359V19.1999M6.68359 19.1999V37.3086C6.68359 38.5387 7.68078 39.5359 8.91087 39.5359H40.0927C41.3228 39.5359 42.32 38.5387 42.32 37.3086V19.1999M6.68359 19.1999H42.32" stroke="#200020" stroke-width="1.11364"></path>
<rect x="13.9197" y="9.46662" width="2.78409" height="5.56818" rx="1.39205" stroke="#200020" stroke-width="1.11364"></rect>
<rect x="32.2947" y="9.46662" width="2.78409" height="5.56818" rx="1.39205" stroke="#200020" stroke-width="1.11364"></rect>
<rect x="16.707" y="22.2734" width="3.89773" height="3.34091" rx="1.11364" stroke="#DA0081" stroke-width="0.556818"></rect>
<rect x="22.832" y="22.2734" width="3.89773" height="3.34091" rx="1.11364" stroke="#DA0081" stroke-width="0.556818"></rect>
<rect x="28.957" y="22.2734" width="3.89773" height="3.34091" rx="1.11364" stroke="#DA0081" stroke-width="0.556818"></rect>
<rect x="35.082" y="22.2734" width="3.89773" height="3.34091" rx="1.11364" stroke="#DA0081" stroke-width="0.556818"></rect>
<rect x="10.582" y="27.8398" width="3.89773" height="3.34091" rx="1.11364" stroke="#DA0081" stroke-width="0.556818"></rect>
<rect x="16.707" y="27.8398" width="3.89773" height="3.34091" rx="1.11364" stroke="#DA0081" stroke-width="0.556818"></rect>
<rect x="22.832" y="27.8398" width="3.89773" height="3.34091" rx="1.11364" stroke="#DA0081" stroke-width="0.556818"></rect>
<rect x="28.957" y="27.8398" width="3.89773" height="3.34091" rx="1.11364" stroke="#DA0081" stroke-width="0.556818"></rect>
<rect x="35.082" y="27.8398" width="3.89773" height="3.34091" rx="1.11364" stroke="#DA0081" stroke-width="0.556818"></rect>
<rect x="10.582" y="33.4102" width="3.89773" height="3.34091" rx="1.11364" stroke="#DA0081" stroke-width="0.556818"></rect>
<rect x="16.707" y="33.4102" width="3.89773" height="3.34091" rx="1.11364" stroke="#DA0081" stroke-width="0.556818"></rect>
<rect x="22.832" y="33.4102" width="3.89773" height="3.34091" rx="1.11364" stroke="#DA0081" stroke-width="0.556818"></rect>
<rect x="28.957" y="33.4102" width="3.89773" height="3.34091" rx="1.11364" stroke="#DA0081" stroke-width="0.556818"></rect>
</svg>