<svg width="4rem" height="4rem" viewBox="0 0 46 46" fill="none" xmlns="http://www.w3.org/2000/svg">
<path d="M41.6426 22.9987C41.6426 33.2955 33.2955 41.6426 22.9987 41.6426C12.7019 41.6426 4.35476 33.2955 4.35476 22.9987C4.35476 12.7019 12.7019 4.35476 22.9987 4.35476C33.2955 4.35476 41.6426 12.7019 41.6426 22.9987Z" stroke="#200020" stroke-width="1.04545" stroke-miterlimit="10" stroke-linecap="round"></path>
<path d="M8.94575 23H7.66797" stroke="#200020" stroke-width="0.522727" stroke-miterlimit="10" stroke-linecap="round"></path>
<path d="M38.3325 23H37.0547" stroke="#200020" stroke-width="0.522727" stroke-miterlimit="10" stroke-linecap="round"></path>
<path d="M23 8.94575L23 7.66797" stroke="#200020" stroke-width="0.522727" stroke-miterlimit="10" stroke-linecap="round"></path>
<path d="M23 38.3325L23 37.0547" stroke="#200020" stroke-width="0.522727" stroke-miterlimit="10" stroke-linecap="round"></path>
<path d="M13.0598 32.9402L12.1562 33.8438" stroke="#200020" stroke-width="0.522727" stroke-miterlimit="10" stroke-linecap="round"></path>
<path d="M33.841 12.159L32.9375 13.0625" stroke="#200020" stroke-width="0.522727" stroke-miterlimit="10" stroke-linecap="round"></path>
<path d="M13.0598 13.0598L12.1562 12.1562" stroke="#200020" stroke-width="0.522727" stroke-miterlimit="10" stroke-linecap="round"></path>
<path d="M33.841 33.841L32.9375 32.9375" stroke="#200020" stroke-width="0.522727" stroke-miterlimit="10" stroke-linecap="round"></path>
<path d="M24.3926 22.9987C24.3926 23.7685 23.7685 24.3926 22.9987 24.3926C22.2288 24.3926 21.6048 23.7685 21.6048 22.9987C21.6048 22.2288 22.2288 21.6048 22.9987 21.6048C23.7685 21.6048 24.3926 22.2288 24.3926 22.9987Z" stroke="#DA0081" stroke-width="1.04545" stroke-miterlimit="10" stroke-linecap="round"></path>
<path d="M24.0469 21.9556L30.8423 15.1602" stroke="#DA0081" stroke-width="1.04545" stroke-linecap="round"></path>
<path d="M23 21.4323V15.9727" stroke="#DA0081" stroke-width="1.04545" stroke-linecap="round"></path>
</svg>